<svg xmlns="http://www.w3.org/2000/svg" viewBox="0 0 848 112" width="848" height="112"><rect x="0" y="0" width="12" height="12" rx="2" fill="#30363d" /><rect x="0" y="16" width="12" height="12" rx="2" fill="#30363d" /><rect x="0" y="32" width="12" height="12" rx="2" fill="#30363d" /><rect x="0" y="48" width="12" height="12" rx="2" fill="#30363d" /><rect x="0" y="64" width="12" height="12" rx="2" fill="#30363d" /><rect x="0" y="80" width="12" height="12" rx="2" fill="#30363d" /><rect x="0" y="96" width="12" height="12" rx="2" fill="#30363d" /><rect x="16" y="0" width="12" height="12" rx="2" fill="#30363d" /><rect x="16" y="16" width="12" height="12" rx="2" fill="#30363d" /><rect x="16" y="32" width="12" height="12" rx="2" fill="#30363d" /><rect x="16" y="48" width="12" height="12" rx="2" fill="#30363d" /><rect x="16" y="64" width="12" height="12" rx="2" fill="#30363d" /><rect x="16" y="80" width="12" height="12" rx="2" fill="#30363d" /><rect x="16" y="96" width="12" height="12" rx="2" fill="#30363d" /><rect x="32" y="0" width="12" height="12" rx="2" fill="#30363d" /><rect x="32" y="16" width="12" height="12" rx="2" fill="#30363d" /><rect x="32" y="32" width="12" height="12" rx="2" fill="#30363d" /><rect x="32" y="48" width="12" height="12" rx="2" fill="#30363d" /><rect x="32" y="64" width="12" height="12" rx="2" fill="#30363d" /><rect x="32" y="80" width="12" height="12" rx="2" fill="#30363d" /><rect x="32" y="96" width="12" height="12" rx="2" fill="#30363d" /><rect x="48" y="0" width="12" height="12" rx="2" fill="#30363d" /><rect x="48" y="16" width="12" height="12" rx="2" fill="#30363d" /><rect x="48" y="32" width="12" height="12" rx="2" fill="#30363d" /><rect x="48" y="48" width="12" height="12" rx="2" fill="#30363d" /><rect x="48" y="64" width="12" height="12" rx="2" fill="#30363d" /><rect x="48" y="80" width="12" height="12" rx="2" fill="#30363d" /><rect x="48" y="96" width="12" height="12" rx="2" fill="#30363d" /><rect x="64" y="0" width="12" height="12" rx="2" fill="#30363d" /><rect x="64" y="16" width="12" height="12" rx="2" fill="#30363d" /><rect x="64" y="32" width="12" height="12" rx="2" fill="#30363d" /><rect x="64" y="48" width="12" height="12" rx="2" fill="#30363d" /><rect x="64" y="64" width="12" height="12" rx="2" fill="#30363d" /><rect x="64" y="80" width="12" height="12" rx="2" fill="#30363d" /><rect x="64" y="96" width="12" height="12" rx="2" fill="#30363d" /><rect x="80" y="0" width="12" height="12" rx="2" fill="#30363d" /><rect x="80" y="16" width="12" height="12" rx="2" fill="#30363d" /><rect x="80" y="32" width="12" height="12" rx="2" fill="#30363d" /><rect x="80" y="48" width="12" height="12" rx="2" fill="#30363d" /><rect x="80" y="64" width="12" height="12" rx="2" fill="#30363d" /><rect x="80" y="80" width="12" height="12" rx="2" fill="#30363d" /><rect x="80" y="96" width="12" height="12" rx="2" fill="#30363d" /><rect x="96" y="0" width="12" height="12" rx="2" fill="#30363d" /><rect x="96" y="16" width="12" height="12" rx="2" fill="#30363d" /><rect x="96" y="32" width="12" height="12" rx="2" fill="#30363d" /><rect x="96" y="48" width="12" height="12" rx="2" fill="#30363d" /><rect x="96" y="64" width="12" height="12" rx="2" fill="#30363d" /><rect x="96" y="80" width="12" height="12" rx="2" fill="#30363d" /><rect x="96" y="96" width="12" height="12" rx="2" fill="#30363d" /><rect x="112" y="0" width="12" height="12" rx="2" fill="#30363d" /><rect x="112" y="16" width="12" height="12" rx="2" fill="#30363d" /><rect x="112" y="32" width="12" height="12" rx="2" fill="#30363d" /><rect x="112" y="48" width="12" height="12" rx="2" fill="#30363d" /><rect x="112" y="64" width="12" height="12" rx="2" fill="#30363d" /><rect x="112" y="80" width="12" height="12" rx="2" fill="#30363d" /><rect x="112" y="96" width="12" height="12" rx="2" fill="#30363d" /><rect x="128" y="0" width="12" height="12" rx="2" fill="#30363d" /><rect x="128" y="16" width="12" height="12" rx="2" fill="#30363d" /><rect x="128" y="32" width="12" height="12" rx="2" fill="#30363d" /><rect x="128" y="48" width="12" height="12" rx="2" fill="#30363d" /><rect x="128" y="64" width="12" height="12" rx="2" fill="#30363d" /><rect x="128" y="80" width="12" height="12" rx="2" fill="#30363d" /><rect x="128" y="96" width="12" height="12" rx="2" fill="#30363d" /><rect x="144" y="0" width="12" height="12" rx="2" fill="#30363d" /><rect x="144" y="16" width="12" height="12" rx="2" fill="#30363d" /><rect x="144" y="32" width="12" height="12" rx="2" fill="#30363d" /><rect x="144" y="48" width="12" height="12" rx="2" fill="#30363d" /><rect x="144" y="64" width="12" height="12" rx="2" fill="#30363d" /><rect x="144" y="80" width="12" height="12" rx="2" fill="#30363d" /><rect x="144" y="96" width="12" height="12" rx="2" fill="#30363d" /><rect x="160" y="0" width="12" height="12" rx="2" fill="#30363d" /><rect x="160" y="16" width="12" height="12" rx="2" fill="#30363d" /><rect x="160" y="32" width="12" height="12" rx="2" fill="#30363d" /><rect x="160" y="48" width="12" height="12" rx="2" fill="#30363d" /><rect x="160" y="64" width="12" height="12" rx="2" fill="#30363d" /><rect x="160" y="80" width="12" height="12" rx="2" fill="#30363d" /><rect x="160" y="96" width="12" height="12" rx="2" fill="#30363d" /><rect x="176" y="0" width="12" height="12" rx="2" fill="#30363d" /><rect x="176" y="16" width="12" height="12" rx="2" fill="#30363d" /><rect x="176" y="32" width="12" height="12" rx="2" fill="#30363d" /><rect x="176" y="48" width="12" height="12" rx="2" fill="#30363d" /><rect x="176" y="64" width="12" height="12" rx="2" fill="#30363d" /><rect x="176" y="80" width="12" height="12" rx="2" fill="#30363d" /><rect x="176" y="96" width="12" height="12" rx="2" fill="#30363d" /><rect x="192" y="0" width="12" height="12" rx="2" fill="#30363d" /><rect x="192" y="16" width="12" height="12" rx="2" fill="#30363d" /><rect x="192" y="32" width="12" height="12" rx="2" fill="#30363d" /><rect x="192" y="48" width="12" height="12" rx="2" fill="#30363d" /><rect x="192" y="64" width="12" height="12" rx="2" fill="#30363d" /><rect x="192" y="80" width="12" height="12" rx="2" fill="#30363d" /><rect x="192" y="96" width="12" height="12" rx="2" fill="#30363d" /><rect x="208" y="0" width="12" height="12" rx="2" fill="#30363d" /><rect x="208" y="16" width="12" height="12" rx="2" fill="#30363d" /><rect x="208" y="32" width="12" height="12" rx="2" fill="#30363d" /><rect x="208" y="48" width="12" height="12" rx="2" fill="#30363d" /><rect x="208" y="64" width="12" height="12" rx="2" fill="#30363d" /><rect x="208" y="80" width="12" height="12" rx="2" fill="#30363d" /><rect x="208" y="96" width="12" height="12" rx="2" fill="#30363d" /><rect x="224" y="0" width="12" height="12" rx="2" fill="#30363d" /><rect x="224" y="16" width="12" height="12" rx="2" fill="#30363d" /><rect x="224" y="32" width="12" height="12" rx="2" fill="#30363d" /><rect x="224" y="48" width="12" height="12" rx="2" fill="#30363d" /><rect x="224" y="64" width="12" height="12" rx="2" fill="#30363d" /><rect x="224" y="80" width="12" height="12" rx="2" fill="#30363d" /><rect x="224" y="96" width="12" height="12" rx="2" fill="#30363d" /><rect x="240" y="0" width="12" height="12" rx="2" fill="#30363d" /><rect x="240" y="16" width="12" height="12" rx="2" fill="#30363d" /><rect x="240" y="32" width="12" height="12" rx="2" fill="#30363d" /><rect x="240" y="48" width="12" height="12" rx="2" fill="#30363d" /><rect x="240" y="64" width="12" height="12" rx="2" fill="#30363d" /><rect x="240" y="80" width="12" height="12" rx="2" fill="#30363d" /><rect x="240" y="96" width="12" height="12" rx="2" fill="#30363d" /><rect x="256" y="0" width="12" height="12" rx="2" fill="#30363d" /><rect x="256" y="16" width="12" height="12" rx="2" fill="#30363d" /><rect x="256" y="32" width="12" height="12" rx="2" fill="#30363d" /><rect x="256" y="48" width="12" height="12" rx="2" fill="#30363d" /><rect x="256" y="64" width="12" height="12" rx="2" fill="#30363d" /><rect x="256" y="80" width="12" height="12" rx="2" fill="#30363d" /><rect x="256" y="96" width="12" height="12" rx="2" fill="#30363d" /><rect x="272" y="0" width="12" height="12" rx="2" fill="#30363d" /><rect x="272" y="16" width="12" height="12" rx="2" fill="#30363d" /><rect x="272" y="32" width="12" height="12" rx="2" fill="#30363d" /><rect x="272" y="48" width="12" height="12" rx="2" fill="#30363d" /><rect x="272" y="64" width="12" height="12" rx="2" fill="#30363d" /><rect x="272" y="80" width="12" height="12" rx="2" fill="#30363d" /><rect x="272" y="96" width="12" height="12" rx="2" fill="#30363d" /><rect x="288" y="0" width="12" height="12" rx="2" fill="#30363d" /><rect x="288" y="16" width="12" height="12" rx="2" fill="#30363d" /><rect x="288" y="32" width="12" height="12" rx="2" fill="#30363d" /><rect x="288" y="48" width="12" height="12" rx="2" fill="#30363d" /><rect x="288" y="64" width="12" height="12" rx="2" fill="#30363d" /><rect x="288" y="80" width="12" height="12" rx="2" fill="#30363d" /><rect x="288" y="96" width="12" height="12" rx="2" fill="#30363d" /><rect x="304" y="0" width="12" height="12" rx="2" fill="#30363d" /><rect x="304" y="16" width="12" height="12" rx="2" fill="#30363d" /><rect x="304" y="32" width="12" height="12" rx="2" fill="#30363d" /><rect x="304" y="48" width="12" height="12" rx="2" fill="#30363d" /><rect x="304" y="64" width="12" height="12" rx="2" fill="#30363d" /><rect x="304" y="80" width="12" height="12" rx="2" fill="#30363d" /><rect x="304" y="96" width="12" height="12" rx="2" fill="#30363d" /><rect x="320" y="0" width="12" height="12" rx="2" fill="#30363d" /><rect x="320" y="16" width="12" height="12" rx="2" fill="#30363d" /><rect x="320" y="32" width="12" height="12" rx="2" fill="#30363d" /><rect x="320" y="48" width="12" height="12" rx="2" fill="#30363d" /><rect x="320" y="64" width="12" height="12" rx="2" fill="#30363d" /><rect x="320" y="80" width="12" height="12" rx="2" fill="#30363d" /><rect x="320" y="96" width="12" height="12" rx="2" fill="#30363d" /><rect x="336" y="0" width="12" height="12" rx="2" fill="#30363d" /><rect x="336" y="16" width="12" height="12" rx="2" fill="#30363d" /><rect x="336" y="32" width="12" height="12" rx="2" fill="#30363d" /><rect x="336" y="48" width="12" height="12" rx="2" fill="#30363d" /><rect x="336" y="64" width="12" height="12" rx="2" fill="#30363d" /><rect x="336" y="80" width="12" height="12" rx="2" fill="#30363d" /><rect x="336" y="96" width="12" height="12" rx="2" fill="#30363d" /><rect x="352" y="0" width="12" height="12" rx="2" fill="#30363d" /><rect x="352" y="16" width="12" height="12" rx="2" fill="#30363d" /><rect x="352" y="32" width="12" height="12" rx="2" fill="#30363d" /><rect x="352" y="48" width="12" height="12" rx="2" fill="#30363d" /><rect x="352" y="64" width="12" height="12" rx="2" fill="#30363d" /><rect x="352" y="80" width="12" height="12" rx="2" fill="#30363d" /><rect x="352" y="96" width="12" height="12" rx="2" fill="#30363d" /><rect x="368" y="0" width="12" height="12" rx="2" fill="#30363d" /><rect x="368" y="16" width="12" height="12" rx="2" fill="#30363d" /><rect x="368" y="32" width="12" height="12" rx="2" fill="#30363d" /><rect x="368" y="48" width="12" height="12" rx="2" fill="#30363d" /><rect x="368" y="64" width="12" height="12" rx="2" fill="#30363d" /><rect x="368" y="80" width="12" height="12" rx="2" fill="#30363d" /><rect x="368" y="96" width="12" height="12" rx="2" fill="#30363d" /><rect x="384" y="0" width="12" height="12" rx="2" fill="#30363d" /><rect x="384" y="16" width="12" height="12" rx="2" fill="#30363d" /><rect x="384" y="32" width="12" height="12" rx="2" fill="#30363d" /><rect x="384" y="48" width="12" height="12" rx="2" fill="#30363d" /><rect x="384" y="64" width="12" height="12" rx="2" fill="#30363d" /><rect x="384" y="80" width="12" height="12" rx="2" fill="#30363d" /><rect x="384" y="96" width="12" height="12" rx="2" fill="#30363d" /><rect x="400" y="0" width="12" height="12" rx="2" fill="#30363d" /><rect x="400" y="16" width="12" height="12" rx="2" fill="#30363d" /><rect x="400" y="32" width="12" height="12" rx="2" fill="#30363d" /><rect x="400" y="48" width="12" height="12" rx="2" fill="#30363d" /><rect x="400" y="64" width="12" height="12" rx="2" fill="#30363d" /><rect x="400" y="80" width="12" height="12" rx="2" fill="#30363d" /><rect x="400" y="96" width="12" height="12" rx="2" fill="#30363d" /><rect x="416" y="0" width="12" height="12" rx="2" fill="#30363d" /><rect x="416" y="16" width="12" height="12" rx="2" fill="#30363d" /><rect x="416" y="32" width="12" height="12" rx="2" fill="#30363d" /><rect x="416" y="48" width="12" height="12" rx="2" fill="#30363d" /><rect x="416" y="64" width="12" height="12" rx="2" fill="#30363d" /><rect x="416" y="80" width="12" height="12" rx="2" fill="#30363d" /><rect x="416" y="96" width="12" height="12" rx="2" fill="#30363d" /><rect x="432" y="0" width="12" height="12" rx="2" fill="#30363d" /><rect x="432" y="16" width="12" height="12" rx="2" fill="#30363d" /><rect x="432" y="32" width="12" height="12" rx="2" fill="#30363d" /><rect x="432" y="48" width="12" height="12" rx="2" fill="#30363d" /><rect x="432" y="64" width="12" height="12" rx="2" fill="#30363d" /><rect x="432" y="80" width="12" height="12" rx="2" fill="#30363d" /><rect x="432" y="96" width="12" height="12" rx="2" fill="#30363d" /><rect x="448" y="0" width="12" height="12" rx="2" fill="#30363d" /><rect x="448" y="16" width="12" height="12" rx="2" fill="#30363d" /><rect x="448" y="32" width="12" height="12" rx="2" fill="#30363d" /><rect x="448" y="48" width="12" height="12" rx="2" fill="#30363d" /><rect x="448" y="64" width="12" height="12" rx="2" fill="#30363d" /><rect x="448" y="80" width="12" height="12" rx="2" fill="#30363d" /><rect x="448" y="96" width="12" height="12" rx="2" fill="#30363d" /><rect x="464" y="0" width="12" height="12" rx="2" fill="#30363d" /><rect x="464" y="16" width="12" height="12" rx="2" fill="#30363d" /><rect x="464" y="32" width="12" height="12" rx="2" fill="#30363d" /><rect x="464" y="48" width="12" height="12" rx="2" fill="#30363d" /><rect x="464" y="64" width="12" height="12" rx="2" fill="#30363d" /><rect x="464" y="80" width="12" height="12" rx="2" fill="#30363d" /><rect x="464" y="96" width="12" height="12" rx="2" fill="#30363d" /><rect x="480" y="0" width="12" height="12" rx="2" fill="#30363d" /><rect x="480" y="16" width="12" height="12" rx="2" fill="#30363d" /><rect x="480" y="32" width="12" height="12" rx="2" fill="#30363d" /><rect x="480" y="48" width="12" height="12" rx="2" fill="#30363d" /><rect x="480" y="64" width="12" height="12" rx="2" fill="#30363d" /><rect x="480" y="80" width="12" height="12" rx="2" fill="#30363d" /><rect x="480" y="96" width="12" height="12" rx="2" fill="#30363d" /><rect x="496" y="0" width="12" height="12" rx="2" fill="#30363d" /><rect x="496" y="16" width="12" height="12" rx="2" fill="#30363d" /><rect x="496" y="32" width="12" height="12" rx="2" fill="#30363d" /><rect x="496" y="48" width="12" height="12" rx="2" fill="#30363d" /><rect x="496" y="64" width="12" height="12" rx="2" fill="#30363d" /><rect x="496" y="80" width="12" height="12" rx="2" fill="#30363d" /><rect x="496" y="96" width="12" height="12" rx="2" fill="#30363d" /><rect x="512" y="0" width="12" height="12" rx="2" fill="#30363d" /><rect x="512" y="16" width="12" height="12" rx="2" fill="#30363d" /><rect x="512" y="32" width="12" height="12" rx="2" fill="#17b58b" /><rect x="512" y="48" width="12" height="12" rx="2" fill="#30363d" /><rect x="512" y="64" width="12" height="12" rx="2" fill="#30363d" /><rect x="512" y="80" width="12" height="12" rx="2" fill="#30363d" /><rect x="512" y="96" width="12" height="12" rx="2" fill="#30363d" /><rect x="528" y="0" width="12" height="12" rx="2" fill="#30363d" /><rect x="528" y="16" width="12" height="12" rx="2" fill="#30363d" /><rect x="528" y="32" width="12" height="12" rx="2" fill="#30363d" /><rect x="528" y="48" width="12" height="12" rx="2" fill="#30363d" /><rect x="528" y="64" width="12" height="12" rx="2" fill="#30363d" /><rect x="528" y="80" width="12" height="12" rx="2" fill="#30363d" /><rect x="528" y="96" width="12" height="12" rx="2" fill="#30363d" /><rect x="544" y="0" width="12" height="12" rx="2" fill="#30363d" /><rect x="544" y="16" width="12" height="12" rx="2" fill="#30363d" /><rect x="544" y="32" width="12" height="12" rx="2" fill="#30363d" /><rect x="544" y="48" width="12" height="12" rx="2" fill="#30363d" /><rect x="544" y="64" width="12" height="12" rx="2" fill="#30363d" /><rect x="544" y="80" width="12" height="12" rx="2" fill="#30363d" /><rect x="544" y="96" width="12" height="12" rx="2" fill="#30363d" /><rect x="560" y="0" width="12" height="12" rx="2" fill="#30363d" /><rect x="560" y="16" width="12" height="12" rx="2" fill="#30363d" /><rect x="560" y="32" width="12" height="12" rx="2" fill="#30363d" /><rect x="560" y="48" width="12" height="12" rx="2" fill="#30363d" /><rect x="560" y="64" width="12" height="12" rx="2" fill="#30363d" /><rect x="560" y="80" width="12" height="12" rx="2" fill="#30363d" /><rect x="560" y="96" width="12" height="12" rx="2" fill="#30363d" /><rect x="576" y="0" width="12" height="12" rx="2" fill="#30363d" /><rect x="576" y="16" width="12" height="12" rx="2" fill="#30363d" /><rect x="576" y="32" width="12" height="12" rx="2" fill="#30363d" /><rect x="576" y="48" width="12" height="12" rx="2" fill="#30363d" /><rect x="576" y="64" width="12" height="12" rx="2" fill="#30363d" /><rect x="576" y="80" width="12" height="12" rx="2" fill="#30363d" /><rect x="576" y="96" width="12" height="12" rx="2" fill="#30363d" /><rect x="592" y="0" width="12" height="12" rx="2" fill="#30363d" /><rect x="592" y="16" width="12" height="12" rx="2" fill="#30363d" /><rect x="592" y="32" width="12" height="12" rx="2" fill="#30363d" /><rect x="592" y="48" width="12" height="12" rx="2" fill="#30363d" /><rect x="592" y="64" width="12" height="12" rx="2" fill="#30363d" /><rect x="592" y="80" width="12" height="12" rx="2" fill="#30363d" /><rect x="592" y="96" width="12" height="12" rx="2" fill="#30363d" /><rect x="608" y="0" width="12" height="12" rx="2" fill="#30363d" /><rect x="608" y="16" width="12" height="12" rx="2" fill="#30363d" /><rect x="608" y="32" width="12" height="12" rx="2" fill="#30363d" /><rect x="608" y="48" width="12" height="12" rx="2" fill="#30363d" /><rect x="608" y="64" width="12" height="12" rx="2" fill="#30363d" /><rect x="608" y="80" width="12" height="12" rx="2" fill="#30363d" /><rect x="608" y="96" width="12" height="12" rx="2" fill="#30363d" /><rect x="624" y="0" width="12" height="12" rx="2" fill="#30363d" /><rect x="624" y="16" width="12" height="12" rx="2" fill="#30363d" /><rect x="624" y="32" width="12" height="12" rx="2" fill="#30363d" /><rect x="624" y="48" width="12" height="12" rx="2" fill="#30363d" /><rect x="624" y="64" width="12" height="12" rx="2" fill="#30363d" /><rect x="624" y="80" width="12" height="12" rx="2" fill="#30363d" /><rect x="624" y="96" width="12" height="12" rx="2" fill="#30363d" /><rect x="640" y="0" width="12" height="12" rx="2" fill="#30363d" /><rect x="640" y="16" width="12" height="12" rx="2" fill="#30363d" /><rect x="640" y="32" width="12" height="12" rx="2" fill="#30363d" /><rect x="640" y="48" width="12" height="12" rx="2" fill="#30363d" /><rect x="640" y="64" width="12" height="12" rx="2" fill="#30363d" /><rect x="640" y="80" width="12" height="12" rx="2" fill="#30363d" /><rect x="640" y="96" width="12" height="12" rx="2" fill="#30363d" /><rect x="656" y="0" width="12" height="12" rx="2" fill="#30363d" /><rect x="656" y="16" width="12" height="12" rx="2" fill="#30363d" /><rect x="656" y="32" width="12" height="12" rx="2" fill="#30363d" /><rect x="656" y="48" width="12" height="12" rx="2" fill="#30363d" /><rect x="656" y="64" width="12" height="12" rx="2" fill="#30363d" /><rect x="656" y="80" width="12" height="12" rx="2" fill="#30363d" /><rect x="656" y="96" width="12" height="12" rx="2" fill="#30363d" /><rect x="672" y="0" width="12" height="12" rx="2" fill="#30363d" /><rect x="672" y="16" width="12" height="12" rx="2" fill="#30363d" /><rect x="672" y="32" width="12" height="12" rx="2" fill="#30363d" /><rect x="672" y="48" width="12" height="12" rx="2" fill="#30363d" /><rect x="672" y="64" width="12" height="12" rx="2" fill="#30363d" /><rect x="672" y="80" width="12" height="12" rx="2" fill="#30363d" /><rect x="672" y="96" width="12" height="12" rx="2" fill="#30363d" /><rect x="688" y="0" width="12" height="12" rx="2" fill="#30363d" /><rect x="688" y="16" width="12" height="12" rx="2" fill="#30363d" /><rect x="688" y="32" width="12" height="12" rx="2" fill="#30363d" /><rect x="688" y="48" width="12" height="12" rx="2" fill="#30363d" /><rect x="688" y="64" width="12" height="12" rx="2" fill="#30363d" /><rect x="688" y="80" width="12" height="12" rx="2" fill="#30363d" /><rect x="688" y="96" width="12" height="12" rx="2" fill="#2CF5B9" /><rect x="704" y="0" width="12" height="12" rx="2" fill="#2CF5B9" /><rect x="704" y="16" width="12" height="12" rx="2" fill="#17b58b" /><rect x="704" y="32" width="12" height="12" rx="2" fill="#30363d" /><rect x="704" y="48" width="12" height="12" rx="2" fill="#30363d" /><rect x="704" y="64" width="12" height="12" rx="2" fill="#30363d" /><rect x="704" y="80" width="12" height="12" rx="2" fill="#30363d" /><rect x="704" y="96" width="12" height="12" rx="2" fill="#30363d" /><rect x="720" y="0" width="12" height="12" rx="2" fill="#30363d" /><rect x="720" y="16" width="12" height="12" rx="2" fill="#30363d" /><rect x="720" y="32" width="12" height="12" rx="2" fill="#30363d" /><rect x="720" y="48" width="12" height="12" rx="2" fill="#30363d" /><rect x="720" y="64" width="12" height="12" rx="2" fill="#30363d" /><rect x="720" y="80" width="12" height="12" rx="2" fill="#30363d" /><rect x="720" y="96" width="12" height="12" rx="2" fill="#30363d" /><rect x="736" y="0" width="12" height="12" rx="2" fill="#30363d" /><rect x="736" y="16" width="12" height="12" rx="2" fill="#30363d" /><rect x="736" y="32" width="12" height="12" rx="2" fill="#30363d" /><rect x="736" y="48" width="12" height="12" rx="2" fill="#30363d" /><rect x="736" y="64" width="12" height="12" rx="2" fill="#30363d" /><rect x="736" y="80" width="12" height="12" rx="2" fill="#30363d" /><rect x="736" y="96" width="12" height="12" rx="2" fill="#30363d" /><rect x="752" y="0" width="12" height="12" rx="2" fill="#30363d" /><rect x="752" y="16" width="12" height="12" rx="2" fill="#30363d" /><rect x="752" y="32" width="12" height="12" rx="2" fill="#30363d" /><rect x="752" y="48" width="12" height="12" rx="2" fill="#30363d" /><rect x="752" y="64" width="12" height="12" rx="2" fill="#30363d" /><rect x="752" y="80" width="12" height="12" rx="2" fill="#30363d" /><rect x="752" y="96" width="12" height="12" rx="2" fill="#30363d" /><rect x="768" y="0" width="12" height="12" rx="2" fill="#30363d" /><rect x="768" y="16" width="12" height="12" rx="2" fill="#30363d" /><rect x="768" y="32" width="12" height="12" rx="2" fill="#30363d" /><rect x="768" y="48" width="12" height="12" rx="2" fill="#30363d" /><rect x="768" y="64" width="12" height="12" rx="2" fill="#30363d" /><rect x="768" y="80" width="12" height="12" rx="2" fill="#30363d" /><rect x="768" y="96" width="12" height="12" rx="2" fill="#17b58b" /><rect x="784" y="0" width="12" height="12" rx="2" fill="#30363d" /><rect x="784" y="16" width="12" height="12" rx="2" fill="#2CF5B9" /><rect x="784" y="32" width="12" height="12" rx="2" fill="#30363d" /><rect x="784" y="48" width="12" height="12" rx="2" fill="#30363d" /><rect x="784" y="64" width="12" height="12" rx="2" fill="#30363d" /><rect x="784" y="80" width="12" height="12" rx="2" fill="#126F5B" /><rect x="784" y="96" width="12" height="12" rx="2" fill="#30363d" /><rect x="800" y="0" width="12" height="12" rx="2" fill="#30363d" /><rect x="800" y="16" width="12" height="12" rx="2" fill="#30363d" /><rect x="800" y="32" width="12" height="12" rx="2" fill="#30363d" /><rect x="800" y="48" width="12" height="12" rx="2" fill="#30363d" /><rect x="800" y="64" width="12" height="12" rx="2" fill="#30363d" /><rect x="800" y="80" width="12" height="12" rx="2" fill="#30363d" /><rect x="800" y="96" width="12" height="12" rx="2" fill="#30363d" /><rect x="816" y="0" width="12" height="12" rx="2" fill="#30363d" /><rect x="816" y="16" width="12" height="12" rx="2" fill="#30363d" /><rect x="816" y="32" width="12" height="12" rx="2" fill="#30363d" /><rect x="816" y="48" width="12" height="12" rx="2" fill="#30363d" /><rect x="816" y="64" width="12" height="12" rx="2" fill="#20dba3" /><rect x="816" y="80" width="12" height="12" rx="2" fill="#30363d" /><rect x="816" y="96" width="12" height="12" rx="2" fill="#30363d" /><rect x="832" y="0" width="12" height="12" rx="2" fill="#30363d" /><rect x="832" y="16" width="12" height="12" rx="2" fill="#30363d" /><rect x="832" y="32" width="12" height="12" rx="2" fill="#30363d" /><rect x="832" y="48" width="12" height="12" rx="2" fill="#30363d" /><rect x="832" y="64" width="12" height="12" rx="2" fill="#2CF5B9" /><rect x="832" y="80" width="12" height="12" rx="2" fill="#30363d" /></svg>